<svg width="656" height="612" viewBox="0 0 656 612" fill="none" xmlns="http://www.w3.org/2000/svg">
<rect width="656" height="612" rx="45" transform="matrix(1 0 0 -1 0 612)" fill="#36A5F4"/>
<path d="M396.235 72.0094C392.867 72.7055 386.948 74.197 382.968 75.2907C379.09 76.3845 360.72 81.555 342.146 86.7255C323.674 91.9955 267.544 107.607 217.64 121.627C167.633 135.547 124.26 148.076 121.198 149.368C102.114 157.721 87.3158 173.829 80.5802 193.815C76.9063 204.653 75.8857 220.96 78.335 230.705C78.9474 233.091 79.6617 236.074 79.9679 237.367C80.172 238.659 81.0905 241.543 81.8049 243.83C83.2337 248.105 86.3973 258.745 87.1117 261.429C87.2138 262.225 92.3165 279.228 98.2357 299.214C104.155 319.2 109.258 336.203 109.462 336.999C110.074 339.683 128.342 402.028 129.26 404.613C129.771 406.005 132.016 413.562 134.363 421.517C142.527 449.557 145.895 460.892 149.365 472.725C151.406 479.287 153.345 485.949 153.753 487.64C160.387 512.597 182.431 532.981 209.781 539.444C216.109 540.936 233.05 541.532 238.051 540.439C239.173 540.24 241.52 539.743 243.153 539.345C246.011 538.649 284.485 528.009 386.54 499.472C410.931 492.611 447.671 482.37 468.184 476.603C488.697 470.935 507.985 465.267 511.047 464.074C524.926 458.804 536.356 447.767 543.5 432.454C548.705 421.318 551.256 411.474 558.4 373.789C559.421 368.618 564.319 343.959 566.666 332.524C567.993 325.962 569.32 319.498 569.626 318.106C569.83 316.714 570.749 312.041 571.667 307.666C580.75 262.921 580.954 261.628 579.015 254.668C577.586 249 572.381 241.841 567.687 238.858C557.175 232.097 542.377 232.992 532.784 240.946C525.845 246.713 524.518 250.79 515.639 296.231C514.925 299.612 513.088 309.058 512.475 312.14C511.761 315.521 504.107 353.803 503.495 356.885C503.188 358.277 501.556 366.729 499.923 375.678C494.412 404.315 492.269 410.877 488.288 412.568C487.064 413.164 470.225 418.037 450.834 423.406C431.444 428.875 387.356 441.204 352.862 450.849C318.367 460.494 278.158 471.73 263.564 475.807C248.97 479.784 235.601 483.563 233.866 484.16C226.008 486.745 217.946 484.955 213.149 479.685C210.394 476.503 208.557 471.929 203.352 453.832C202.535 451.048 200.801 445.082 199.372 440.409C197.943 435.736 196.106 429.471 195.29 426.488C194.473 423.505 193.044 418.733 192.228 416.048C191.412 413.264 188.452 403.022 185.594 393.178C182.635 383.334 179.879 373.888 179.267 372.297C178.757 370.607 176.716 363.746 174.777 356.885C172.838 350.024 170.797 343.064 170.184 341.473C162.632 317.907 134.159 218.276 134.159 215.491C134.261 210.818 138.139 204.156 142.119 201.77C144.568 200.378 187.84 187.451 202.331 183.872C205.087 183.176 245.807 171.84 367.66 137.635C387.867 131.968 405.93 126.996 407.767 126.698C414.707 125.504 422.769 129.382 425.933 135.348C426.852 137.039 434.097 160.704 442.16 187.849C450.222 215.094 457.57 238.958 458.488 240.946C460.53 245.023 466.551 250.591 471.347 252.878C487.268 260.137 506.658 251.586 511.149 235.279C512.373 230.804 512.169 222.352 510.74 218.673C510.23 217.281 509.72 215.491 509.516 214.696C509.312 213.9 508.393 210.52 507.373 207.238C506.352 203.957 505.434 200.775 505.332 200.278C503.495 191.727 480.532 117.152 478.491 112.777C469.612 94.4813 453.896 81.0579 433.587 74.4953C425.729 71.91 422.055 71.3134 413.176 71.0151C406.951 70.9157 399.807 71.3134 396.235 72.0094Z" fill="white"/>
<path d="M313.241 175.207C313.036 175.505 310.986 175.902 308.731 176.2C306.579 176.596 304.016 176.993 303.196 177.192C302.376 177.489 299.916 177.886 297.661 178.283C291.715 179.176 279.21 183.343 269.471 187.708C247.33 197.63 228.982 213.802 215.758 234.935C213.708 238.209 211.966 241.185 211.966 241.483C211.966 241.681 210.736 244.558 209.198 247.733C207.66 251.007 206.328 253.785 206.328 254.083C206.225 254.381 205.2 257.556 203.97 261.326C198.742 277.299 196.692 300.516 198.845 320.557C204.995 377.308 242.615 418.283 297.558 428.106C304.631 429.395 314.676 430.09 325.235 429.991C339.79 429.891 345.531 429.296 361.112 426.32C370.03 424.633 386.02 417.688 396.271 411.14C402.729 406.973 418.002 392.587 418.002 390.702C418.002 390.106 412.057 383.657 404.882 376.415C393.811 365.303 391.351 363.219 388.276 362.922C383.97 362.425 378.538 364.41 374.95 367.684C367.364 374.629 353.014 380.483 340.405 381.673C315.394 384.054 297.558 378.697 282.592 364.311C267.831 349.924 260.246 330.578 259.733 305.278C258.606 254.579 288.64 221.739 335.28 222.93C351.271 223.326 360.599 226.104 375.872 235.133C380.588 237.911 384.995 240.292 385.61 240.292C387.353 240.491 390.633 240.491 393.093 240.391C396.271 240.094 401.601 234.637 412.569 220.052L422 207.651L418.72 204.773C403.549 191.578 386.123 182.946 364.802 177.985C355.474 175.803 351.066 175.406 333.845 175.108C322.774 174.91 313.549 175.009 313.241 175.207Z" fill="white"/>
</svg>
